<svg xmlns="http://www.w3.org/2000/svg" xmlns:xlink="http://www.w3.org/1999/xlink" width="149" height="84" version="1.1" viewBox="0 0 149 84"><title>Combined Shape</title><desc>Created with Sketch.</desc><g id="租户管理/镜像仓库" fill="none" fill-rule="evenodd" stroke="none" stroke-width="1" opacity=".05"><g id="Group-10" fill="#FFF" fill-rule="nonzero"><g transform="translate(-1271.000000, -88.000000) translate(260.000000, 88.000000)"><g id="Group-8"><g id="Combined-Shape"><path d="M1086,84 C1044.57864,84 1011,50.4213562 1011,9 C1011,-32.4213562 1044.57864,-66 1086,-66 C1127.42136,-66 1161,-32.4213562 1161,9 C1161,50.4213562 1127.42136,84 1086,84 Z M1076,39 C1098.09139,39 1116,21.09139 1116,-1 C1116,-23.09139 1098.09139,-41 1076,-41 C1053.90861,-41 1036,-23.09139 1036,-1 C1036,21.09139 1053.90861,39 1076,39 Z" transform="translate(1086.000000, 9.000000) scale(-1, 1) translate(-1086.000000, -9.000000)"/></g></g></g></g></g></svg>