<svg xmlns="http://www.w3.org/2000/svg" xmlns:xlink="http://www.w3.org/1999/xlink" width="100" height="100" version="1.1" viewBox="0 0 100 100"><title>没有图片</title><desc>Created with Sketch.</desc><g id="应用模板" fill="none" fill-rule="evenodd" stroke="none" stroke-width="1"><g id="没有图片" fill-rule="nonzero"><rect id="Rectangle-3" width="100" height="100" x="0" y="0" fill="#EFF4F8" rx="5"/><polygon id="Shape" fill="#B5C2C9" points="16.257 64.236 16.257 73.039 83.278 73.039 83.278 55.433 70.932 32.547 60.35 50.152 56.822 48.391 49.767 55.433 39.185 44.87 26.839 65.996 21.548 60.715"/><path id="Shape" fill="#B5C2C9" d="M26.9614362,30.4521277 C26.9614361,32.3643537 27.9815966,34.1313235 29.6376329,35.0874365 C31.2936693,36.0435495 33.3339903,36.0435495 34.9900266,35.0874365 C36.646063,34.1313235 37.6662235,32.3643537 37.6662234,30.4521277 C37.6662235,28.5399016 36.646063,26.7729319 34.9900266,25.8168188 C33.3339903,24.8607058 31.2936693,24.8607058 29.6376329,25.8168188 C27.9815966,26.7729319 26.9614361,28.5399016 26.9614362,30.4521277 Z"/></g></g></svg>