<svg xmlns="http://www.w3.org/2000/svg" xmlns:xlink="http://www.w3.org/1999/xlink" width="123" height="80" preserveAspectRatio="none" version="1.1" viewBox="0 0 123 80"><title>编组 10</title><desc>Created with Sketch.</desc><g id="存储卷/存储卷" fill="none" fill-rule="evenodd" stroke="none" stroke-width="1"><g id="编组-10"><g id="编组-8"><path id="形状结合" fill="#242E42" fill-rule="nonzero" d="M122.076923,0 C122.629208,-1.01453063e-16 123.076923,0.44771525 123.076923,1 L123.076923,79 C123.076923,79.5522847 122.629208,80 122.076923,80 L1,80 C0.44771525,80 -1.13619202e-13,79.5522847 -1.13686838e-13,79 L-1.13686838e-13,1 C-1.13754473e-13,0.44771525 0.44771525,1.01453063e-16 1,0 L122.076923,0 Z M109.988666,3.07692308 L65.1817201,3.07692308 L65.1761551,3.76383749 C64.8093377,26.3880702 46.3549068,44.6153846 23.6432585,44.6153846 L23.6432585,44.6153846 L3.07826862,44.6153846 L3.07640006,70.4076633 C3.89317171,69.6758377 4.97220605,69.2307692 6.1551917,69.2307692 C8.70419824,69.2307692 10.7705763,71.2971473 10.7705763,73.8461538 C10.7705763,75.028801 10.3257625,76.1075564 9.59431033,76.9242443 L9.59431033,76.9242443 L109.988666,76.9230769 L109.988666,3.07692308 Z"/><circle id="椭圆形备份" cx="116.923" cy="6.154" r="3.077" fill="#4A5974"/><circle id="椭圆形备份-2" cx="116.923" cy="73.846" r="3.077" fill="#4A5974"/><circle id="椭圆形备份-3" cx="6.154" cy="73.846" r="3.077" fill="#4A5974"/><g id="编组-5" fill-rule="nonzero" transform="translate(113.846154, 20.000000)"><polygon id="矩形" fill="#C1C9D1" points="0 0 9.231 0 9.231 36.923 0 28.022"/><rect id="矩形" width="6.154" height="3.077" x="3.077" y="4.615" fill="#36435C"/><rect id="矩形备份-8" width="6.154" height="3.077" x="3.077" y="10.769" fill="#36435C"/><rect id="矩形备份-9" width="6.154" height="3.077" x="3.077" y="16.923" fill="#36435C"/><rect id="矩形备份-10" width="6.154" height="3.077" x="3.077" y="23.077" fill="#36435C"/></g><g id="编组-7" fill-rule="nonzero" transform="translate(3.076923, 3.076923)"><path id="矩形" fill="#C1C9D1" d="M0,0 L58.4615385,0 C58.4615385,21.2417211 41.2417211,38.4615385 20,38.4615385 L0,38.4615385 L0,38.4615385 L0,0 Z"/><rect id="矩形" width="6.154" height="3.077" x="3.077" y="4.615" fill="#36435C"/><rect id="矩形备份-2" width="6.154" height="3.077" x="3.077" y="10.769" fill="#36435C"/><rect id="矩形备份-4" width="6.154" height="3.077" x="3.077" y="16.923" fill="#36435C"/><rect id="矩形备份-6" width="6.154" height="3.077" x="3.077" y="23.077" fill="#36435C"/><rect id="矩形备份" width="27.692" height="3.077" x="12.308" y="4.615" fill="#36435C"/><rect id="矩形备份-3" width="27.692" height="3.077" x="12.308" y="10.769" fill="#36435C"/><rect id="矩形备份-5" width="27.692" height="3.077" x="12.308" y="16.923" fill="#36435C"/><rect id="矩形备份-7" width="27.692" height="3.077" x="12.308" y="23.077" fill="#36435C"/></g></g></g></g></svg>